#define icon_width 32
#define icon_height 32
static unsigned char icon_bits[] = {
   0x00, 0x00, 0x00, 0x00, 0x00, 0x00, 0x00, 0x00, 0x00, 0x09, 0x20, 0x00,
   0x00, 0x09, 0x20, 0x00, 0x00, 0x01, 0x20, 0x00, 0x00, 0x01, 0x20, 0x00,
   0x38, 0x09, 0x27, 0xf2, 0x24, 0x89, 0x24, 0x09, 0x22, 0x49, 0xa4, 0xe8,
   0x31, 0x29, 0x66, 0x90, 0x2d, 0xa9, 0xa5, 0x80, 0x22, 0x49, 0x24, 0x41,
   0x20, 0x09, 0x24, 0x3a, 0x12, 0x40, 0x02, 0x00, 0x0c, 0x80, 0x01, 0x00,
   0x00, 0x00, 0x00, 0x00, 0x00, 0x00, 0x00, 0x00, 0x82, 0x88, 0xc0, 0x03,
   0x82, 0x88, 0x60, 0x00, 0x42, 0x44, 0x20, 0x00, 0x24, 0x24, 0x20, 0x00,
   0x24, 0xfc, 0xe1, 0x01, 0x14, 0x10, 0x00, 0x02, 0x18, 0x08, 0x00, 0x02,
   0x08, 0x08, 0xb2, 0x03, 0x08, 0x08, 0xe2, 0x00, 0x00, 0x00, 0x00, 0x00,
   0x00, 0x00, 0x00, 0x00, 0x00, 0x00, 0x00, 0x00, 0x00, 0x00, 0x00, 0x00,
   0x00, 0x00, 0x00, 0x00, 0x00, 0x00, 0x00, 0x00};
