#define icon_width 32
#define icon_height 32
static char icon_bits[] = {
  0x00, 0x00, 0x00, 0x00, 0x00, 0x00, 0x00, 0x00, 0x00, 0x09, 0x20, 0x00, 
  0x00, 0x09, 0x20, 0x00, 0x00, 0x01, 0x20, 0x00, 0x00, 0x01, 0x20, 0x00, 
  0x38, 0x09, 0x27, 0xF2, 0x24, 0x89, 0x24, 0x09, 0x22, 0x49, 0xA4, 0xE8, 
  0x31, 0x29, 0x66, 0x90, 0x2D, 0xA9, 0xA5, 0x80, 0x22, 0x49, 0x24, 0x41, 
  0x20, 0x09, 0x24, 0x3A, 0x12, 0x40, 0x02, 0x00, 0x0C, 0x80, 0x01, 0x00, 
  0x00, 0x00, 0x00, 0x00, 0x00, 0x00, 0x00, 0x00, 0x80, 0x20, 0x1E, 0x00, 
  0x80, 0x20, 0x03, 0x00, 0x80, 0x10, 0x01, 0x00, 0x00, 0x09, 0x01, 0x00, 
  0x00, 0x09, 0x0F, 0x00, 0x00, 0x05, 0x10, 0x00, 0x00, 0x06, 0x10, 0x00, 
  0x00, 0x82, 0x1D, 0x00, 0x00, 0x02, 0x07, 0x00, 0x00, 0x00, 0x00, 0x00, 
  0x00, 0x00, 0x00, 0x00, 0x00, 0x00, 0x00, 0x00, 0x00, 0x00, 0x00, 0x00, 
  0x00, 0x00, 0x00, 0x00, 0x00, 0x00, 0x00, 0x00, };
